<?xml version="1.0" encoding="UTF-8" standalone="no"?>
<!-- Created with Inkscape (http://www.inkscape.org/) -->
<svg xmlns:dc="http://purl.org/dc/elements/1.1/" xmlns:cc="http://creativecommons.org/ns#" xmlns:rdf="http://www.w3.org/1999/02/22-rdf-syntax-ns#" xmlns:svg="http://www.w3.org/2000/svg" xmlns="http://www.w3.org/2000/svg" xmlns:sodipodi="http://sodipodi.sourceforge.net/DTD/sodipodi-0.dtd" xmlns:inkscape="http://www.inkscape.org/namespaces/inkscape" width="45" height="45" id="svg3128" sodipodi:version="0.32" inkscape:version="0.46" version="1.0" sodipodi:docbase="/home/cburnett/wikipedia/images/chess" sodipodi:docname="Chess_put45.svg" inkscape:output_extension="org.inkscape.output.svg.inkscape">
  <defs id="defs3130">
    <inkscape:perspective sodipodi:type="inkscape:persp3d" inkscape:vp_x="0 : 22.5 : 1" inkscape:vp_y="0 : 1000 : 0" inkscape:vp_z="45 : 22.5 : 1" inkscape:persp3d-origin="22.5 : 15 : 1" id="perspective9"/>
  </defs>
  <sodipodi:namedview id="base" pagecolor="#ffffff" bordercolor="#666666" borderopacity="1.0" gridtolerance="10000" guidetolerance="10" objecttolerance="10" inkscape:pageopacity="0.0" inkscape:pageshadow="2" inkscape:zoom="11.2" inkscape:cx="22.89394" inkscape:cy="27.812786" inkscape:document-units="px" inkscape:current-layer="layer1" height="45px" width="45px" inkscape:grid-points="true" showgrid="true" inkscape:window-width="1024" inkscape:window-height="696" inkscape:window-x="-4" inkscape:window-y="-4" showguides="false" inkscape:snap-global="false">
    <inkscape:grid id="GridFromPre046Settings" type="xygrid" originx="0px" originy="0px" spacingx="0.5px" spacingy="0.5px" color="#0000ff" empcolor="#0000ff" opacity="0.2" empopacity="0.4" empspacing="5"/>
  </sodipodi:namedview>
  <metadata id="metadata3133">
    <rdf:RDF>
      <cc:Work rdf:about="">
        <dc:format>image/svg+xml</dc:format>
        <dc:type rdf:resource="http://purl.org/dc/dcmitype/StillImage"/>
      </cc:Work>
    </rdf:RDF>
  </metadata>
  <g inkscape:label="Layer 1" inkscape:groupmode="layer" id="layer1">
    <path style="opacity:1;fill:white;fill-opacity:1;fill-rule:nonzero;stroke:black;stroke-width:1.5;stroke-linecap:round;stroke-linejoin:miter;stroke-miterlimit:4;stroke-dasharray:none;stroke-dashoffset:10;stroke-opacity:1" d="M 22 9 C 19.792 9 18 10.792 18 13 C 18 13.885103 18.29397 14.712226 18.78125 15.375 C 16.829274 16.496917 15.5 18.588492 15.5 21 C 15.5 23.033947 16.442042 24.839082 17.90625 26.03125 C 14.907101 27.08912 10.5 31.578049 10.5 39.5 L 33.5 39.5 C 33.5 31.578049 29.092899 27.08912 26.09375 26.03125 C 27.557958 24.839082 28.5 23.033948 28.5 21 C 28.5 18.588492 27.170726 16.496917 25.21875 15.375 C 25.70603 14.712226 26 13.885103 26 13 C 26 10.792 24.208 9 22 9 z " id="path3194"/>
    <path style="fill:none;fill-rule:evenodd;stroke:#000000;stroke-width:1px;stroke-linecap:butt;stroke-linejoin:miter;stroke-opacity:1" d="M 21.875,9.5535714 C 21.875,39.553571 21.875,37.053571 21.875,37.053571 L 21.875,39.553571" id="path2382"/>
    <path style="fill:#000000" d="M 11.378843,37.813868 C 11.447221,36.882326 11.595711,36.019397 11.877627,34.915241 C 12.559237,32.245643 14.09251,29.684329 15.912064,28.175767 C 16.801177,27.438618 17.32095,27.125422 18.350205,26.706632 C 18.832677,26.510321 19.245351,26.331782 19.267252,26.30988 C 19.289155,26.287978 18.848367,25.815917 18.287726,25.260852 C 17.453047,24.434477 17.208721,24.130329 16.939075,23.582001 C 16.497485,22.684026 16.33558,22.001824 16.333766,21.031459 C 16.331385,19.757269 16.584944,18.910023 17.282839,17.860239 C 17.751666,17.155024 18.208861,16.719011 19.134406,16.094459 C 19.512865,15.839079 19.822511,15.611543 19.822511,15.588825 C 19.822511,15.566107 19.643061,15.259159 19.423731,14.90672 C 18.956022,14.155157 18.805308,13.578 18.853599,12.723373 C 18.896063,11.971848 19.217555,11.272992 19.765865,10.740293 C 20.164022,10.353471 20.907664,9.9212871 21.175095,9.9212871 C 21.335252,9.9212871 21.340369,10.366356 21.340369,24.296287 L 21.340369,38.671287 L 16.328135,38.671287 L 11.3159,38.671287 L 11.378843,37.813868 z" id="path2384"/>
    <path style="fill:#000000" d="M 11.372734,38.336466 C 11.399169,38.152314 11.446048,37.720394 11.47691,37.376644 C 11.554158,36.51623 11.913664,34.878741 12.237594,33.911876 C 13.093755,31.356395 14.876422,28.859198 16.729123,27.620036 C 17.082054,27.383982 17.77178,27.016754 18.261844,26.803977 C 18.751908,26.591201 19.188605,26.384323 19.232283,26.344249 C 19.276355,26.303812 18.869546,25.803543 18.31811,25.220061 C 16.818417,23.633218 16.415484,22.736044 16.419552,20.992716 C 16.422146,19.881566 16.574935,19.23209 17.03344,18.383198 C 17.483298,17.550317 17.979016,17.009971 18.981448,16.259813 C 19.449827,15.909308 19.82063,15.591887 19.805457,15.554434 C 19.790286,15.516982 19.597065,15.133118 19.376083,14.701405 C 19.006576,13.979531 18.971893,13.854619 18.94437,13.146558 C 18.907026,12.18573 19.11759,11.557371 19.690421,10.920245 C 20.126917,10.434759 21.011036,9.9122452 21.152198,10.056338 C 21.206554,10.111825 21.262481,15.431008 21.303086,24.407894 L 21.367605,38.671287 L 16.34614,38.671287 L 11.324674,38.671287 L 11.372734,38.336466 z" id="path2386"/>
    <path style="fill:#000000" d="M 9.7938141,39.273966 C 9.9075846,36.158203 10.405462,33.906491 11.485244,31.624273 C 12.676769,29.105868 14.36222,27.199601 16.593846,25.846373 C 16.610494,25.83628 16.457408,25.602365 16.253661,25.326562 C 15.326586,24.071627 14.916717,22.884653 14.849649,21.260573 C 14.810642,20.316051 14.832719,20.027848 14.993267,19.385573 C 15.357305,17.929225 15.965832,16.884088 17.085943,15.791422 L 17.795697,15.099058 L 17.652211,14.764636 C 17.407469,14.194234 17.323526,13.743131 17.32301,12.995528 C 17.321232,10.41986 19.422073,8.3141443 21.993561,8.3141443 C 24.034177,8.3141443 25.893955,9.680588 26.489844,11.617716 C 26.728899,12.39484 26.704884,13.739498 26.437732,14.535601 L 26.222593,15.176701 L 26.527016,15.425017 C 27.829494,16.487441 28.719954,17.981813 29.073227,19.698073 C 29.247751,20.545952 29.201052,21.982423 28.97163,22.823073 C 28.767409,23.571376 28.221795,24.696849 27.782469,25.276027 C 27.578597,25.544796 27.414154,25.785867 27.417035,25.811742 C 27.419917,25.837618 27.711211,26.039591 28.064356,26.260573 C 29.020485,26.858872 30.632077,28.505701 31.41785,29.687384 C 32.135612,30.766794 32.414931,31.289405 32.894502,32.450243 C 33.70837,34.420282 34.197511,36.972151 34.197511,39.248126 L 34.197511,40.189144 L 21.978954,40.189144 L 9.7603971,40.189144 L 9.7938141,39.273966 z M 21.786797,24.077343 L 21.429654,9.7512568 L 21.01213,9.876913 C 19.696268,10.27293 18.757832,11.537334 18.753202,12.92049 C 18.750528,13.719172 18.906357,14.237826 19.372232,14.980851 C 19.574902,15.304087 19.72899,15.577591 19.714652,15.588636 C 19.700312,15.599683 19.005396,15.433344 18.633378,15.681985 C 17.814022,16.229603 17.024336,17.449431 16.637016,18.176115 C 16.229438,18.940811 15.809141,20.054522 15.809141,21.032882 C 15.809141,22.809368 16.894935,24.157927 18.398093,25.529831 C 18.739559,25.841479 19.01894,26.069551 19.01894,26.036656 C 19.01894,26.00376 18.069215,25.947393 17.602918,25.448409 C 16.259137,24.010426 15.910272,22.736818 15.91262,21.055851 C 15.914169,19.945339 16.138425,19.112027 16.594056,17.809801 C 16.912186,16.900565 17.418835,16.941961 18.394947,16.21518 C 18.840277,15.883601 19.81799,15.583967 19.803753,15.549325 C 19.789516,15.514682 18.96572,15.069983 18.744738,14.63827 C 18.375231,13.916396 18.593086,13.72835 18.565563,13.020289 C 18.528219,12.059461 18.760447,11.110942 19.333278,10.473816 C 19.770818,9.9871694 21.448951,9.6234546 21.406318,9.4249927 C 21.28422,8.8566017 21.710938,15.070891 21.751799,24.229323 L 21.684679,38.923825 L 16.102152,39.113229 C 13.344274,39.113229 10.236444,38.902152 10.804655,38.623126 C 11.098965,38.478602 10.930808,36.542413 11.074464,35.814144 C 11.738288,32.448864 14.238892,28.821115 16.540801,27.178507 C 17.034935,26.825902 18.526585,26.625601 19.143327,26.405876 C 19.236293,26.372755 18.469923,26.134568 18.44342,26.108065 C 18.359192,26.023838 16.949771,26.597463 16.332312,26.994815 C 15.614312,27.45687 13.999274,28.734383 13.438357,29.531648 C 11.866984,31.765125 10.962933,34.762551 10.750233,37.666823 L 10.846652,38.886842 L 16.327557,39.202515 L 21.745327,39.13938 L 21.786797,24.077343 z M 32.731911,38.023966 C 32.424167,34.251304 31.024485,30.93875 28.798149,28.714128 C 27.82359,27.740321 26.993862,27.175221 25.83091,26.693243 C 25.349951,26.493912 24.929079,26.304974 24.895638,26.273377 C 24.862196,26.241783 25.125111,25.954769 25.479892,25.635573 C 27.022379,24.247795 27.640325,23.075296 27.742732,21.342022 C 27.868844,19.207515 26.884386,17.318426 25.001842,16.0825 C 24.608569,15.824308 24.286797,15.598743 24.286797,15.581246 C 24.286797,15.563749 24.439605,15.297609 24.626371,14.989824 C 25.154136,14.120084 25.224297,13.886785 25.224297,13.001644 C 25.224297,12.285168 25.194075,12.13517 24.94546,11.617716 C 24.645619,10.993642 24.267492,10.560809 23.719223,10.214071 C 23.393317,10.007963 22.677053,9.7457863 22.434119,9.7436818 C 22.345286,9.742913 22.322511,12.703509 22.322511,24.251644 L 22.322511,38.760573 L 27.557257,38.760573 L 32.791997,38.760573 L 32.731911,38.023966 z" id="path2388" sodipodi:nodetypes="cssssscccssscccsssssssccccccccssssssssssssssssscccsssssssccccccssssssssssssccccc"/>
  </g>
</svg>